<svg width="20" height="20" viewBox="0 0 20 20" fill="none" xmlns="http://www.w3.org/2000/svg">
<g id="material-symbols:keyboard-arrow-down-rounded">
<path id="Vector" d="M10 14.4286C9.88042 14.4286 9.76442 14.404 9.65202 14.3549C9.53961 14.3059 9.44634 14.2404 9.3722 14.1587L5.24664 9.64394C5.08221 9.46401 5 9.235 5 8.95692C5 8.67884 5.08221 8.44983 5.24664 8.2699C5.41106 8.08997 5.62033 8 5.87444 8C6.12855 8 6.33782 8.08997 6.50224 8.2699L10 12.0976L13.4978 8.2699C13.6622 8.08997 13.8714 8 14.1256 8C14.3797 8 14.5889 8.08997 14.7534 8.2699C14.9178 8.44983 15 8.67884 15 8.95692C15 9.235 14.9178 9.46401 14.7534 9.64394L10.6278 14.1587C10.5381 14.2568 10.441 14.3265 10.3363 14.3677C10.2317 14.4089 10.1196 14.4292 10 14.4286Z" fill="#0F172A"/>
</g>
</svg>
