<svg width="95" height="26" viewBox="0 0 95 26" fill="none" xmlns="http://www.w3.org/2000/svg">
<path d="M14.5507 0.439999L23.2987 22.976C23.6347 23.84 24.0067 24.44 24.4147 24.776C24.8467 25.088 25.2307 25.256 25.5667 25.28V26C24.8467 25.952 23.9947 25.928 23.0107 25.928C22.0507 25.904 21.0787 25.892 20.0947 25.892C18.9907 25.892 17.9467 25.904 16.9627 25.928C15.9787 25.928 15.1987 25.952 14.6227 26V25.28C15.8467 25.232 16.6147 25.028 16.9267 24.668C17.2627 24.284 17.1907 23.48 16.7107 22.256L10.5907 5.516L11.2387 4.58L5.76673 18.836C5.23873 20.156 4.91473 21.236 4.79473 22.076C4.69873 22.916 4.75873 23.564 4.97473 24.02C5.21473 24.476 5.58673 24.8 6.09073 24.992C6.61873 25.16 7.24273 25.256 7.96273 25.28V26C7.17073 25.952 6.41473 25.928 5.69473 25.928C4.97473 25.904 4.24273 25.892 3.49873 25.892C2.97073 25.892 2.46673 25.904 1.98673 25.928C1.53073 25.928 1.12273 25.952 0.762734 26V25.28C1.26673 25.184 1.78273 24.86 2.31073 24.308C2.83873 23.756 3.35473 22.82 3.85873 21.5L12.0667 0.439999C12.4507 0.463998 12.8587 0.475998 13.2907 0.475998C13.7467 0.475998 14.1667 0.463998 14.5507 0.439999ZM17.0707 15.632V16.352H6.34273L6.70273 15.632H17.0707ZM45.3665 0.512V1.232L33.0545 25.172H36.7985C37.6145 25.172 38.4305 25.04 39.2465 24.776C40.0865 24.512 40.8545 24.08 41.5505 23.48C42.2705 22.88 42.8825 22.088 43.3865 21.104C43.8905 20.096 44.2265 18.848 44.3945 17.36H45.2225C45.1505 18.176 45.1145 19.232 45.1145 20.528C45.1145 21.08 45.1265 21.86 45.1505 22.868C45.1745 23.876 45.2465 24.92 45.3665 26C44.4785 25.952 43.5065 25.928 42.4505 25.928C41.3945 25.904 40.3385 25.892 39.2825 25.892C38.2505 25.892 37.2905 25.892 36.4025 25.892C34.8425 25.892 33.2105 25.904 31.5065 25.928C29.8025 25.928 28.2065 25.952 26.7185 26V25.28L39.0665 1.34H35.1785C34.2665 1.34 33.4145 1.46 32.6225 1.7C31.8545 1.94 31.1465 2.348 30.4985 2.924C29.8505 3.476 29.3105 4.232 28.8785 5.192C28.4465 6.128 28.1465 7.304 27.9785 8.72H27.1505C27.1985 8.384 27.2225 7.976 27.2225 7.496C27.2465 7.016 27.2585 6.512 27.2585 5.984C27.2585 5.432 27.2345 4.652 27.1865 3.644C27.1625 2.636 27.1025 1.592 27.0065 0.512C27.7985 0.536 28.6745 0.559999 29.6345 0.583999C30.5945 0.607999 31.5425 0.619998 32.4785 0.619998C33.4385 0.619998 34.3145 0.619998 35.1065 0.619998C36.7145 0.619998 38.4305 0.619998 40.2545 0.619998C42.0785 0.595999 43.7825 0.559999 45.3665 0.512ZM59.3187 0.512V1.232C58.5507 1.256 57.9627 1.352 57.5547 1.52C57.1707 1.664 56.9187 1.952 56.7987 2.384C56.6787 2.792 56.6187 3.44 56.6187 4.328V22.184C56.6187 23.048 56.6787 23.696 56.7987 24.128C56.9427 24.56 57.2067 24.848 57.5907 24.992C57.9747 25.136 58.5507 25.232 59.3187 25.28V26C58.6707 25.952 57.8547 25.928 56.8707 25.928C55.8867 25.904 54.8907 25.892 53.8827 25.892C52.7067 25.892 51.6147 25.904 50.6067 25.928C49.6227 25.928 48.8187 25.952 48.1947 26V25.28C48.9627 25.232 49.5387 25.136 49.9227 24.992C50.3067 24.848 50.5587 24.56 50.6787 24.128C50.8227 23.696 50.8947 23.048 50.8947 22.184V4.328C50.8947 3.44 50.8227 2.792 50.6787 2.384C50.5587 1.952 50.2947 1.664 49.8867 1.52C49.5027 1.352 48.9387 1.256 48.1947 1.232V0.512C48.8187 0.536 49.6227 0.559999 50.6067 0.583999C51.6147 0.607999 52.7067 0.619998 53.8827 0.619998C54.8907 0.619998 55.8867 0.607999 56.8707 0.583999C57.8547 0.559999 58.6707 0.536 59.3187 0.512ZM80.5579 0.512V1.232L68.2459 25.172H71.9899C72.8059 25.172 73.6219 25.04 74.4379 24.776C75.2779 24.512 76.0459 24.08 76.7419 23.48C77.4619 22.88 78.0739 22.088 78.5779 21.104C79.0819 20.096 79.4179 18.848 79.5859 17.36H80.4139C80.3419 18.176 80.3059 19.232 80.3059 20.528C80.3059 21.08 80.3179 21.86 80.3419 22.868C80.3659 23.876 80.4379 24.92 80.5579 26C79.6699 25.952 78.6979 25.928 77.6419 25.928C76.5859 25.904 75.5299 25.892 74.4739 25.892C73.4419 25.892 72.4819 25.892 71.5939 25.892C70.0339 25.892 68.4019 25.904 66.6979 25.928C64.9939 25.928 63.3979 25.952 61.9099 26V25.28L74.2579 1.34H70.3699C69.4579 1.34 68.6059 1.46 67.8139 1.7C67.0459 1.94 66.3379 2.348 65.6899 2.924C65.0419 3.476 64.5019 4.232 64.0699 5.192C63.6379 6.128 63.3379 7.304 63.1699 8.72H62.3419C62.3899 8.384 62.4139 7.976 62.4139 7.496C62.4379 7.016 62.4499 6.512 62.4499 5.984C62.4499 5.432 62.4259 4.652 62.3779 3.644C62.3539 2.636 62.2939 1.592 62.1979 0.512C62.9899 0.536 63.8659 0.559999 64.8259 0.583999C65.7859 0.607999 66.7339 0.619998 67.6699 0.619998C68.6299 0.619998 69.5059 0.619998 70.2979 0.619998C71.9059 0.619998 73.6219 0.619998 75.4459 0.619998C77.2699 0.595999 78.9739 0.559999 80.5579 0.512ZM94.5101 0.512V1.232C93.7421 1.256 93.1541 1.352 92.7461 1.52C92.3621 1.664 92.1101 1.952 91.9901 2.384C91.8701 2.792 91.8101 3.44 91.8101 4.328V22.184C91.8101 23.048 91.8701 23.696 91.9901 24.128C92.1341 24.56 92.3981 24.848 92.7821 24.992C93.1661 25.136 93.7421 25.232 94.5101 25.28V26C93.8621 25.952 93.0461 25.928 92.0621 25.928C91.0781 25.904 90.0821 25.892 89.0741 25.892C87.8981 25.892 86.8061 25.904 85.7981 25.928C84.8141 25.928 84.0101 25.952 83.3861 26V25.28C84.1541 25.232 84.7301 25.136 85.1141 24.992C85.4981 24.848 85.7501 24.56 85.8701 24.128C86.0141 23.696 86.0861 23.048 86.0861 22.184V4.328C86.0861 3.44 86.0141 2.792 85.8701 2.384C85.7501 1.952 85.4861 1.664 85.0781 1.52C84.6941 1.352 84.1301 1.256 83.3861 1.232V0.512C84.0101 0.536 84.8141 0.559999 85.7981 0.583999C86.8061 0.607999 87.8981 0.619998 89.0741 0.619998C90.0821 0.619998 91.0781 0.607999 92.0621 0.583999C93.0461 0.559999 93.8621 0.536 94.5101 0.512Z" fill="#F5F3FF"/>
</svg>
