<svg
          xmlns="http://www.w3.org/2000/svg"
          width="12"
          height="12"
          viewBox="0 0 12 12"
          fill="none"
        >
          <path
            d="M3.57422 10.55C3.44922 10.425 3.38672 10.277 3.38672 10.106C3.38672 9.935 3.44922 9.78717 3.57422 9.6625L7.23672 6L3.56172 2.325C3.44505 2.20833 3.38672 2.0625 3.38672 1.8875C3.38672 1.7125 3.44922 1.5625 3.57422 1.4375C3.69922 1.3125 3.84722 1.25 4.01822 1.25C4.18922 1.25 4.33705 1.3125 4.46172 1.4375L8.66172 5.65C8.71172 5.7 8.74722 5.75417 8.76822 5.8125C8.78922 5.87083 8.79955 5.93333 8.79922 6C8.79922 6.06667 8.78872 6.12917 8.76772 6.1875C8.74672 6.24583 8.71139 6.3 8.66172 6.35L4.44922 10.5625C4.33255 10.6792 4.18872 10.7375 4.01772 10.7375C3.84672 10.7375 3.69889 10.675 3.57422 10.55Z"
            fill="white"
          />
        </svg>