<svg
          xmlns="http://www.w3.org/2000/svg"
          width="24"
          height="24"
          viewBox="0 0 24 24"
          fill="none"
        >
          <path
            d="M5.75 19V19.25H6H9H9.25V19V13.25H14.75V19V19.25H15H18H18.25V19V10V9.875L18.15 9.8L12.15 5.3L12 5.1875L11.85 5.3L5.85 9.8L5.75 9.875V10V19ZM4.25 19.0003V19V10C4.25 9.72226 4.31191 9.46061 4.4365 9.21201C4.56123 8.96314 4.7314 8.76075 4.9481 8.60141L4.94811 8.60142L4.95 8.6L10.9485 4.10113C11.1122 3.98228 11.2807 3.89497 11.4541 3.83717C11.6279 3.77924 11.8095 3.75 12 3.75C12.1906 3.75 12.3721 3.77924 12.5459 3.83717C12.7194 3.89497 12.8878 3.98229 13.0515 4.10115L19.05 8.6L19.05 8.60001L19.0522 8.6016C19.2695 8.76096 19.4399 8.9633 19.5645 9.21201C19.689 9.46045 19.7506 9.72191 19.75 9.99947V10V19C19.75 19.4831 19.5808 19.8907 19.2352 20.2362C18.8897 20.5817 18.4825 20.7506 18.0003 20.75H18H13.25V15V14.75H13H11H10.75V15V20.75H6C5.5169 20.75 5.10931 20.5808 4.76378 20.2352C4.41825 19.8897 4.24942 19.4825 4.25 19.0003Z"
            fill="white"
            stroke="#0F172A"
            stroke-width="0.5"
          />
        </svg>