<svg
          xmlns="http://www.w3.org/2000/svg"
          width="40"
          height="40"
          viewBox="0 0 40 40"
          fill="none"
        >
          <path
            d="M20 25.6248C21.1125 25.6248 22.2001 25.2949 23.1251 24.6768C24.0501 24.0587 24.7711 23.1802 25.1968 22.1523C25.6226 21.1245 25.734 19.9935 25.5169 18.9024C25.2999 17.8112 24.7641 16.809 23.9775 16.0223C23.1908 15.2356 22.1885 14.6999 21.0974 14.4828C20.0062 14.2658 18.8752 14.3772 17.8474 14.8029C16.8196 15.2287 15.9411 15.9496 15.323 16.8747C14.7049 17.7997 14.375 18.8872 14.375 19.9998C14.375 21.4916 14.9676 22.9223 16.0225 23.9772C17.0774 25.0321 18.5082 25.6248 20 25.6248ZM20 15.6248C20.8653 15.6248 21.7112 15.8813 22.4306 16.3621C23.1501 16.8428 23.7108 17.5261 24.042 18.3255C24.3731 19.1249 24.4597 20.0046 24.2909 20.8533C24.1221 21.7019 23.7054 22.4815 23.0936 23.0933C22.4817 23.7052 21.7022 24.1219 20.8535 24.2907C20.0049 24.4595 19.1252 24.3729 18.3258 24.0417C17.5263 23.7106 16.8431 23.1498 16.3623 22.4304C15.8816 21.7109 15.625 20.865 15.625 19.9998C15.625 18.8394 16.0859 17.7266 16.9064 16.9062C17.7269 16.0857 18.8397 15.6248 20 15.6248ZM37.5 9.37476H2.5C2.33424 9.37476 2.17527 9.4406 2.05806 9.55781C1.94085 9.67502 1.875 9.834 1.875 9.99976V29.9998C1.875 30.1655 1.94085 30.3245 2.05806 30.4417C2.17527 30.5589 2.33424 30.6248 2.5 30.6248H37.5C37.6658 30.6248 37.8247 30.5589 37.9419 30.4417C38.0592 30.3245 38.125 30.1655 38.125 29.9998V9.99976C38.125 9.834 38.0592 9.67502 37.9419 9.55781C37.8247 9.4406 37.6658 9.37476 37.5 9.37476ZM3.125 16.7591C4.61669 16.408 5.98096 15.6479 7.06457 14.5643C8.14819 13.4807 8.90824 12.1164 9.25937 10.6248H30.7406C31.0918 12.1164 31.8518 13.4807 32.9354 14.5643C34.019 15.6479 35.3833 16.408 36.875 16.7591V23.2404C35.3833 23.5915 34.019 24.3516 32.9354 25.4352C31.8518 26.5188 31.0918 27.8831 30.7406 29.3748H9.25937C8.90824 27.8831 8.14819 26.5188 7.06457 25.4352C5.98096 24.3516 4.61669 23.5915 3.125 23.2404V16.7591ZM36.875 15.4685C35.7203 15.1438 34.6683 14.5278 33.8202 13.6796C32.972 12.8314 32.356 11.7795 32.0312 10.6248H36.875V15.4685ZM7.96875 10.6248C7.64404 11.7795 7.02804 12.8314 6.17985 13.6796C5.33166 14.5278 4.27974 15.1438 3.125 15.4685V10.6248H7.96875ZM3.125 24.531C4.27974 24.8557 5.33166 25.4717 6.17985 26.3199C7.02804 27.1681 7.64404 28.22 7.96875 29.3748H3.125V24.531ZM32.0312 29.3748C32.356 28.22 32.972 27.1681 33.8202 26.3199C34.6683 25.4717 35.7203 24.8557 36.875 24.531V29.3748H32.0312Z"
            fill="#71717A"
          />
        </svg>