<svg width="44" height="44" viewBox="0 0 44 44" fill="none" xmlns="http://www.w3.org/2000/svg">
<g clip-path="url(#clip0_204_20)">
<path d="M42.4335 10.5274C42.9316 8.9206 43.0914 7.228 42.9028 5.55635C42.7142 3.8847 42.1812 2.27027 41.3376 0.814841C41.1945 0.567052 40.9888 0.361297 40.7409 0.218264C40.4931 0.0752311 40.212 -3.75901e-05 39.9259 2.66675e-05C38.0278 -0.00394642 36.155 0.436083 34.4573 1.28496C32.7595 2.13383 31.2839 3.36802 30.1481 4.88891H25.2593C24.1236 3.36802 22.6479 2.13383 20.9501 1.28496C19.2524 0.436083 17.3796 -0.00394642 15.4815 2.66675e-05C15.1954 -3.75901e-05 14.9143 0.0752311 14.6665 0.218264C14.4187 0.361297 14.2129 0.567052 14.0698 0.814841C13.2262 2.27027 12.6932 3.8847 12.5046 5.55635C12.316 7.228 12.4758 8.9206 12.9739 10.5274C11.967 12.2848 11.4277 14.271 11.4074 16.2963V17.9259C11.4108 20.6833 12.4118 23.3463 14.2255 25.4232C16.0392 27.5 18.5431 28.8506 21.2748 29.2254C20.1598 30.6522 19.5545 32.4113 19.5556 34.2222V35.8519H14.6667C13.3701 35.8519 12.1265 35.3368 11.2097 34.4199C10.2929 33.5031 9.77778 32.2596 9.77778 30.963C9.77778 29.8929 9.56702 28.8334 9.15754 27.8448C8.74805 26.8562 8.14787 25.958 7.39124 25.2014C6.63461 24.4447 5.73637 23.8445 4.74779 23.4351C3.75921 23.0256 2.69966 22.8148 1.62963 22.8148C1.19743 22.8148 0.782922 22.9865 0.477307 23.2921C0.171693 23.5977 0 24.0123 0 24.4445C0 24.8767 0.171693 25.2912 0.477307 25.5968C0.782922 25.9024 1.19743 26.0741 1.62963 26.0741C2.92624 26.0741 4.16975 26.5892 5.0866 27.506C6.00344 28.4228 6.51852 29.6664 6.51852 30.963C6.51852 33.124 7.37698 35.1965 8.90506 36.7246C10.4331 38.2527 12.5056 39.1111 14.6667 39.1111H19.5556V42.3704C19.5556 42.8026 19.7272 43.2171 20.0329 43.5227C20.3385 43.8283 20.753 44 21.1852 44C21.6174 44 22.0319 43.8283 22.3375 43.5227C22.6431 43.2171 22.8148 42.8026 22.8148 42.3704V34.2222C22.8148 32.9256 23.3299 31.6821 24.2467 30.7653C25.1636 29.8484 26.4071 29.3333 27.7037 29.3333C29.0003 29.3333 30.2438 29.8484 31.1607 30.7653C32.0775 31.6821 32.5926 32.9256 32.5926 34.2222V42.3704C32.5926 42.8026 32.7643 43.2171 33.0699 43.5227C33.3755 43.8283 33.79 44 34.2222 44C34.6544 44 35.0689 43.8283 35.3745 43.5227C35.6802 43.2171 35.8519 42.8026 35.8519 42.3704V34.2222C35.8529 32.4113 35.2476 30.6522 34.1326 29.2254C36.8643 28.8506 39.3682 27.5 41.1819 25.4232C42.9956 23.3463 43.9966 20.6833 44 17.9259V16.2963C43.9797 14.271 43.4404 12.2848 42.4335 10.5274ZM40.7407 17.9259C40.7407 20.087 39.8823 22.1595 38.3542 23.6875C36.8261 25.2156 34.7536 26.0741 32.5926 26.0741H22.8148C20.6538 26.0741 18.5813 25.2156 17.0532 23.6875C15.5251 22.1595 14.6667 20.087 14.6667 17.9259V16.2963C14.6866 14.6667 15.1745 13.0772 16.0722 11.7171C16.2396 11.4965 16.348 11.2369 16.3872 10.9628C16.4264 10.6888 16.3951 10.4092 16.2963 10.1506C15.8718 9.05587 15.6675 7.88816 15.6952 6.71436C15.7228 5.54056 15.9817 4.38375 16.4572 3.31021C17.7909 3.45368 19.0752 3.89548 20.2149 4.60285C21.3546 5.31023 22.3205 6.26504 23.0409 7.3965C23.1877 7.62609 23.3898 7.81519 23.6286 7.9465C23.8674 8.07782 24.1353 8.14716 24.4078 8.14817H30.9976C31.2711 8.14818 31.5403 8.07933 31.7802 7.94797C32.0202 7.8166 32.2232 7.62696 32.3706 7.3965C33.0909 6.26494 34.0568 5.31005 35.1965 4.60266C36.3362 3.89528 37.6205 3.45354 38.9543 3.31021C39.4291 4.38402 39.6874 5.54097 39.7143 6.71476C39.7412 7.88856 39.5362 9.05613 39.1111 10.1506C39.0126 10.4067 38.9797 10.6835 39.0152 10.9556C39.0508 11.2277 39.1538 11.4867 39.3148 11.7089C40.2214 13.0691 40.7165 14.6619 40.7407 16.2963V17.9259Z" fill="white"/>
</g>
<defs>
<clipPath id="clip0_204_20">
<rect width="44" height="44" fill="white"/>
</clipPath>
</defs>
</svg>
