<svg xmlns="http://www.w3.org/2000/svg" width="20" height="20" viewBox="0 0 20 20" fill="none">
  <path d="M3.1251 9.37494C2.95934 9.37494 2.80036 9.44079 2.68315 9.558C2.56594 9.67521 2.5001 9.83418 2.5001 9.99994C2.5001 10.1657 2.56594 10.3247 2.68315 10.4419C2.80036 10.5591 2.95934 10.6249 3.1251 10.6249L15.2463 10.6249L10.2076 15.1599C10.0872 15.2714 10.0155 15.4258 10.008 15.5897C10.0004 15.7536 10.0576 15.9139 10.1672 16.036C10.2769 16.1581 10.4301 16.2322 10.5939 16.2423C10.7576 16.2524 10.9188 16.1977 11.0426 16.0899L17.2926 10.4649C17.3579 10.4063 17.4101 10.3346 17.4458 10.2545C17.4815 10.1744 17.5 10.0877 17.5 9.99994C17.5 9.91222 17.4815 9.82548 17.4458 9.74537C17.4101 9.66525 17.3579 9.59355 17.2926 9.53494L11.0426 3.90994C10.9188 3.80222 10.7576 3.7475 10.5939 3.75759C10.4301 3.76768 10.2769 3.84177 10.1672 3.96386C10.0576 4.08595 10.0004 4.24626 10.008 4.41017C10.0155 4.57408 10.0872 4.72844 10.2076 4.83994L15.2463 9.37494L3.1251 9.37494Z" fill="#F5F3FF"/>
</svg>