<svg width="44" height="44" viewBox="0 0 44 44" fill="none" xmlns="http://www.w3.org/2000/svg">
<rect width="44" height="44" rx="22" fill="#6D28D9"/>
<path d="M30.8472 24.8556L26.4306 22.8766L26.4184 22.8709C26.1892 22.7729 25.939 22.7335 25.6907 22.7564C25.4424 22.7793 25.2037 22.8638 24.9963 23.0022C24.9718 23.0183 24.9483 23.0358 24.9259 23.0547L22.6441 25C21.1984 24.2978 19.7059 22.8166 19.0038 21.3897L20.9519 19.0731C20.9706 19.0497 20.9884 19.0262 21.0053 19.0009C21.1407 18.794 21.2229 18.5569 21.2445 18.3105C21.266 18.0642 21.2264 17.8164 21.1291 17.5891V17.5778L19.1444 13.1537C19.0157 12.8568 18.7944 12.6094 18.5136 12.4486C18.2328 12.2877 17.9075 12.222 17.5863 12.2612C16.3159 12.4284 15.1499 13.0523 14.3059 14.0163C13.4619 14.9804 12.9977 16.2187 13 17.5C13 24.9437 19.0563 31 26.5 31C27.7813 31.0023 29.0196 30.5381 29.9837 29.6941C30.9477 28.8501 31.5716 27.6841 31.7388 26.4137C31.778 26.0926 31.7125 25.7674 31.5518 25.4866C31.3911 25.2058 31.144 24.9845 30.8472 24.8556ZM26.5 29.5C23.3185 29.4965 20.2682 28.2311 18.0186 25.9814C15.7689 23.7318 14.5035 20.6815 14.5 17.5C14.4965 16.5845 14.8263 15.6991 15.4279 15.009C16.0295 14.3189 16.8617 13.8714 17.7691 13.75C17.7687 13.7537 17.7687 13.7575 17.7691 13.7612L19.7378 18.1675L17.8 20.4869C17.7803 20.5095 17.7625 20.5336 17.7466 20.5591C17.6055 20.7755 17.5227 21.0248 17.5063 21.2827C17.4899 21.5406 17.5403 21.7983 17.6528 22.0309C18.5022 23.7681 20.2525 25.5053 22.0084 26.3537C22.2428 26.4652 22.502 26.5139 22.7608 26.4952C23.0196 26.4764 23.2691 26.3909 23.485 26.2469C23.5091 26.2307 23.5322 26.2131 23.5544 26.1944L25.8334 24.25L30.2397 26.2234H30.25C30.1301 27.1321 29.6833 27.966 28.993 28.5691C28.3028 29.1721 27.4166 29.5031 26.5 29.5Z" fill="#F5F3FF"/>
</svg>
