<svg xmlns="http://www.w3.org/2000/svg" width="20" height="20" viewBox="0 0 20 20" fill="none">
  <path d="M16.8749 9.37494C17.0406 9.37494 17.1996 9.44079 17.3168 9.558C17.434 9.67521 17.4999 9.83418 17.4999 9.99994C17.4999 10.1657 17.434 10.3247 17.3168 10.4419C17.1996 10.5591 17.0406 10.6249 16.8749 10.6249L4.75364 10.6249L9.79239 15.1599C9.91277 15.2714 9.98447 15.4258 9.99202 15.5897C9.99957 15.7536 9.94236 15.9139 9.83274 16.036C9.72312 16.1581 9.56988 16.2322 9.40611 16.2423C9.24234 16.2524 9.08116 16.1977 8.95739 16.0899L2.70739 10.4649C2.64212 10.4063 2.58993 10.3346 2.5542 10.2545C2.51847 10.1744 2.5 10.0877 2.5 9.99994C2.5 9.91222 2.51847 9.82548 2.5542 9.74537C2.58993 9.66525 2.64212 9.59355 2.70739 9.53494L8.95739 3.90994C9.08116 3.80222 9.24233 3.7475 9.40611 3.75759C9.56988 3.76768 9.72312 3.84177 9.83274 3.96386C9.94236 4.08595 9.99957 4.24626 9.99202 4.41017C9.98447 4.57408 9.91277 4.72844 9.79239 4.83994L4.75364 9.37494L16.8749 9.37494Z" fill="#F5F3FF"/>
</svg>