<svg width="20" height="20" viewBox="0 0 20 20" fill="none" xmlns="http://www.w3.org/2000/svg">
<g id="Icon">
<g id="Group">
<path id="Vector" fill-rule="evenodd" clip-rule="evenodd" d="M10 0.5C4.75315 0.5 0.5 4.75315 0.5 10C0.5 11.7955 0.99875 13.477 1.8661 14.9096L1.0187 17.79C0.970045 17.9554 0.966844 18.1308 1.00943 18.2978C1.05202 18.4649 1.13883 18.6174 1.26072 18.7393C1.38262 18.8612 1.5351 18.948 1.70215 18.9906C1.86919 19.0331 2.04462 19.0299 2.21 18.9813L5.0904 18.1339C6.57114 19.0298 8.26931 19.5023 10 19.5C15.2469 19.5 19.5 15.2468 19.5 10C19.5 4.75315 15.2469 0.5 10 0.5ZM7.8511 12.1498C9.77295 14.0707 11.6074 14.3244 12.2553 14.3481C13.2404 14.3842 14.1999 13.6318 14.5733 12.7588C14.6204 12.6502 14.6375 12.5309 14.6228 12.4134C14.6081 12.296 14.5622 12.1846 14.4897 12.0909C13.9691 11.4259 13.2652 10.9481 12.5773 10.4731C12.4337 10.3738 12.2573 10.334 12.0849 10.362C11.9126 10.3899 11.7578 10.4836 11.653 10.6232L11.083 11.4924C11.053 11.5392 11.0063 11.5727 10.9525 11.5861C10.8986 11.5995 10.8416 11.5919 10.7933 11.5646C10.4066 11.3433 9.84325 10.9671 9.43855 10.5624C9.03385 10.1577 8.68045 9.62 8.4819 9.25805C8.45728 9.21206 8.45017 9.15871 8.46187 9.10788C8.47357 9.05705 8.5033 9.01219 8.54555 8.9816L9.42335 8.3299C9.54862 8.22097 9.62947 8.06978 9.65049 7.90512C9.67151 7.74045 9.63124 7.5738 9.53735 7.4369C9.11175 6.8137 8.61585 6.0214 7.8967 5.49605C7.80389 5.42879 7.69517 5.38685 7.58124 5.37436C7.4673 5.36187 7.35208 5.37925 7.2469 5.4248C6.3729 5.7991 5.6167 6.7586 5.6528 7.74565C5.67655 8.39355 5.9302 10.228 7.8511 12.1498Z" fill="#F5F3FF"/>
</g>
</g>
</svg>
