<svg width="20" height="20" viewBox="0 0 20 20" fill="none" xmlns="http://www.w3.org/2000/svg">
<g id="Icon">
<path id="Vector" d="M5.21778 8.55685C6.49778 10.9152 8.56 12.8402 11.0756 14.0485L13.0311 12.2152C13.2711 11.9902 13.6267 11.9152 13.9378 12.0152C14.9333 12.3235 16.0089 12.4902 17.1111 12.4902C17.6 12.4902 18 12.8652 18 13.3235V16.2319C18 16.6902 17.6 17.0652 17.1111 17.0652C8.76444 17.0652 2 10.7235 2 2.89852C2 2.44019 2.4 2.06519 2.88889 2.06519H6C6.48889 2.06519 6.88889 2.44019 6.88889 2.89852C6.88889 3.94019 7.06667 4.94019 7.39556 5.87352C7.49333 6.16519 7.42222 6.49019 7.17333 6.72352L5.21778 8.55685Z" fill="#F5F3FF"/>
</g>
</svg>
