<svg xmlns="http://www.w3.org/2000/svg" width="20" height="20" viewBox="0 0 20 20" fill="none">
  <rect x="2" y="2" width="16" height="16" rx="2" fill="#6D28D9"/>
  <path d="M14.3999 7.73333C14.5103 7.61485 14.5704 7.45814 14.5675 7.29623C14.5647 7.13431 14.4991 6.97982 14.3846 6.86531C14.27 6.7508 14.1156 6.68521 13.9536 6.68235C13.7917 6.67949 13.635 6.73959 13.5165 6.84999L8.54154 11.825L6.48321 9.76666C6.36473 9.65626 6.20802 9.59616 6.0461 9.59902C5.88419 9.60187 5.7297 9.66747 5.61519 9.78198C5.50068 9.89649 5.43508 10.051 5.43223 10.2129C5.42937 10.3748 5.48947 10.5315 5.59987 10.65L8.09987 13.15C8.21706 13.267 8.37591 13.3328 8.54154 13.3328C8.70716 13.3328 8.86602 13.267 8.9832 13.15L14.3999 7.73333Z" fill="#EDE9FE"/>
  <path d="M3.12484 1.66666H16.8748C17.6798 1.66666 18.3332 2.31999 18.3332 3.12499V16.875C18.3332 17.2618 18.1795 17.6327 17.906 17.9062C17.6325 18.1797 17.2616 18.3333 16.8748 18.3333H3.12484C2.73806 18.3333 2.36713 18.1797 2.09364 17.9062C1.82015 17.6327 1.6665 17.2618 1.6665 16.875V3.12499C1.6665 2.31999 2.31984 1.66666 3.12484 1.66666ZM2.9165 3.12499V16.875C2.9165 16.99 3.00984 17.0833 3.12484 17.0833H16.8748C16.9301 17.0833 16.9831 17.0614 17.0222 17.0223C17.0612 16.9832 17.0832 16.9302 17.0832 16.875V3.12499C17.0832 3.06974 17.0612 3.01675 17.0222 2.97768C16.9831 2.93861 16.9301 2.91666 16.8748 2.91666H3.12484C3.06958 2.91666 3.01659 2.93861 2.97752 2.97768C2.93845 3.01675 2.9165 3.06974 2.9165 3.12499Z" fill="#6D28D9"/>
</svg>