<svg xmlns="http://www.w3.org/2000/svg" width="20" height="20" viewBox="0 0 20 20" fill="none">
  <path d="M3.12484 1.66666H16.8748C17.6798 1.66666 18.3332 2.31999 18.3332 3.12499V16.875C18.3332 17.2618 18.1795 17.6327 17.906 17.9062C17.6325 18.1797 17.2616 18.3333 16.8748 18.3333H3.12484C2.73806 18.3333 2.36713 18.1797 2.09364 17.9062C1.82015 17.6327 1.6665 17.2618 1.6665 16.875V3.12499C1.6665 2.31999 2.31984 1.66666 3.12484 1.66666ZM2.9165 3.12499V16.875C2.9165 16.99 3.00984 17.0833 3.12484 17.0833H16.8748C16.9301 17.0833 16.9831 17.0614 17.0222 17.0223C17.0612 16.9832 17.0832 16.9302 17.0832 16.875V3.12499C17.0832 3.06974 17.0612 3.01675 17.0222 2.97768C16.9831 2.93861 16.9301 2.91666 16.8748 2.91666H3.12484C3.06958 2.91666 3.01659 2.93861 2.97752 2.97768C2.93845 3.01675 2.9165 3.06974 2.9165 3.12499Z" fill="#0F172A"/>
</svg>